<svg width="1606" height="280" viewBox="0 0 1606 280" fill="none" xmlns="http://www.w3.org/2000/svg">
<path d="M674.345 67.3174C674.345 84.4845 665.031 93.0681 646.402 93.0681C643.419 93.0681 639.467 92.7054 634.548 91.9801L641.322 56.2554C641.644 54.6435 641.907 53.3741 642.108 52.4472C648.237 52.0039 652.652 51.7823 655.354 51.7823C658.095 51.7823 660.716 52.0644 663.216 52.6286C665.716 53.1927 667.793 54.0995 669.446 55.3487C672.712 57.8069 674.345 61.7965 674.345 67.3174ZM661.886 65.0808C661.886 59.0763 659.728 56.0741 655.414 56.0741H654.809C654.608 56.0741 654.406 56.0942 654.204 56.1345L647.975 88.595C648.136 88.6756 648.297 88.7159 648.459 88.7159H648.943C650.434 88.7159 651.946 88.2525 653.479 87.3256C655.051 86.3987 656.442 84.9883 657.652 83.0942C660.474 78.7017 661.886 72.6972 661.886 65.0808ZM690.626 93.6122C681.755 93.6122 677.32 89.4413 677.32 81.0995C677.32 75.1756 678.953 70.2995 682.219 66.4711C685.687 62.401 690.424 60.3659 696.432 60.3659C700.787 60.3659 704.073 61.3733 706.291 63.3883C708.508 65.4032 709.617 68.5263 709.617 72.7577C709.617 79.2054 707.883 84.3032 704.416 88.051C701.029 91.7584 696.432 93.6122 690.626 93.6122ZM692.199 67.3174C691.715 68.4054 691.271 69.7756 690.868 71.4278C690.505 73.0398 690.082 75.1353 689.598 77.7144C689.114 80.2935 688.872 83.1748 688.872 86.3584C688.872 87.4062 689.033 88.2726 689.356 88.9577C689.719 89.6428 690.364 89.9853 691.291 89.9853C692.219 89.9853 692.965 89.7636 693.529 89.3204C694.134 88.8771 694.658 88.1316 695.102 87.0838C695.908 85.2301 696.634 82.5905 697.279 79.1651C697.924 75.6995 698.267 73.2211 698.307 71.7301C698.388 70.239 698.428 68.9495 698.428 67.8614C698.428 66.733 698.267 65.8062 697.944 65.0808C697.622 64.3554 696.997 63.9927 696.069 63.9927C695.182 63.9927 694.436 64.2748 693.832 64.839C693.227 65.4032 692.682 66.2293 692.199 67.3174ZM715.775 90.5898C714.848 89.542 714.163 88.192 713.719 86.5398C713.316 84.8875 713.114 82.7114 713.114 80.0114C713.114 77.3114 713.578 74.7323 714.505 72.2741C715.433 69.8159 716.743 67.7002 718.437 65.9271C721.904 62.2196 726.501 60.3659 732.226 60.3659C734.283 60.3659 736.057 60.7084 737.549 61.3935L747.891 60.3659L743.415 83.9405C743.294 84.4241 743.234 85.1092 743.234 85.9957C743.234 86.8823 743.496 87.6077 744.02 88.1719C744.585 88.736 745.27 89.0584 746.077 89.139C745.673 90.5092 744.726 91.5972 743.234 92.4032C741.782 93.2092 740.23 93.6122 738.577 93.6122C736.924 93.6122 735.533 93.2898 734.404 92.645C733.315 92.0405 732.609 91.2144 732.287 90.1666C731.642 91.1741 730.634 92.0002 729.263 92.645C727.892 93.2898 726.279 93.6122 724.424 93.6122C722.61 93.6122 720.957 93.3704 719.465 92.8868C717.973 92.4032 716.743 91.6375 715.775 90.5898ZM728.537 66.048C728.093 66.7733 727.67 67.7607 727.267 69.0099C726.864 70.2189 726.319 72.4756 725.634 75.7801C724.989 79.0442 724.666 81.845 724.666 84.1823C724.666 86.5196 724.848 88.0308 725.21 88.7159C725.573 89.401 726.077 89.7435 726.722 89.7435C728.013 89.7435 729.122 89.139 730.049 87.9301C731.017 86.6808 731.682 84.9681 732.045 82.792L735.25 65.0808C734.404 64.3554 733.476 63.9927 732.468 63.9927C731.501 63.9927 730.714 64.1539 730.109 64.4763C729.545 64.7987 729.021 65.3226 728.537 66.048ZM780.613 67.2569C780.613 68.9495 779.907 70.3196 778.496 71.3674C777.085 72.4151 775.23 72.939 772.932 72.939C771.964 72.939 771.198 72.798 770.633 72.5159C771.077 71.4681 771.359 70.2995 771.48 69.0099C771.641 67.6801 771.722 66.8338 771.722 66.4711C771.722 64.7786 771.137 63.9323 769.968 63.9323C769.162 63.9323 768.295 64.436 767.367 65.4435C766.48 66.451 765.654 67.7405 764.888 69.3121C763.194 72.939 762.347 76.586 762.347 80.2532C762.347 82.2681 762.73 83.739 763.497 84.6659C764.263 85.5525 765.492 85.9957 767.186 85.9957C769.524 85.9957 771.621 85.0286 773.476 83.0942C774 82.4898 774.403 81.845 774.686 81.1599C776.218 81.9659 776.984 83.4771 776.984 85.6935C776.984 87.9502 775.734 89.8241 773.234 91.3151C770.653 92.8465 767.307 93.6122 763.194 93.6122C755.009 93.6122 750.916 89.2801 750.916 80.6159C750.916 74.289 752.711 69.3122 756.299 65.6853C759.767 62.139 764.686 60.3659 771.057 60.3659C777.427 60.3659 780.613 62.6629 780.613 67.2569ZM761.501 95.9696C762.146 95.889 763.214 95.8487 764.706 95.8487C766.238 95.8487 767.629 96.3122 768.879 97.239C770.129 98.1659 770.754 99.3144 770.754 100.685C770.754 102.861 769.908 104.614 768.214 105.943C766.561 107.314 764.363 107.999 761.622 107.999C759.807 107.999 758.376 107.717 757.327 107.152C756.279 106.588 755.755 105.823 755.755 104.855C755.755 103.888 756.118 103.123 756.844 102.558C757.61 103.848 758.96 104.493 760.896 104.493C762.065 104.493 762.952 104.251 763.557 103.767C764.202 103.324 764.525 102.699 764.525 101.893C764.525 99.9995 762.993 99.0525 759.928 99.0525C759.122 99.0525 758.275 99.0928 757.388 99.1733L759.626 91.7383H762.771L761.501 95.9696ZM795.405 93.6122C786.534 93.6122 782.099 89.4413 782.099 81.0995C782.099 75.1756 783.732 70.2995 786.998 66.4711C790.466 62.401 795.203 60.3659 801.211 60.3659C805.566 60.3659 808.852 61.3733 811.07 63.3883C813.287 65.4032 814.396 68.5263 814.396 72.7577C814.396 79.2054 812.662 84.3032 809.195 88.051C805.808 91.7584 801.211 93.6122 795.405 93.6122ZM796.978 67.3174C796.494 68.4054 796.05 69.7756 795.647 71.4278C795.284 73.0398 794.861 75.1353 794.377 77.7144C793.893 80.2935 793.651 83.1748 793.651 86.3584C793.651 87.4062 793.812 88.2726 794.135 88.9577C794.498 89.6428 795.143 89.9853 796.07 89.9853C796.998 89.9853 797.744 89.7636 798.308 89.3204C798.913 88.8771 799.437 88.1316 799.881 87.0838C800.687 85.2301 801.413 82.5905 802.058 79.1651C802.703 75.6995 803.046 73.2211 803.086 71.7301C803.167 70.239 803.207 68.9495 803.207 67.8614C803.207 66.733 803.046 65.8062 802.723 65.0808C802.401 64.3554 801.776 63.9927 800.848 63.9927C799.961 63.9927 799.215 64.2748 798.611 64.839C798.006 65.4032 797.461 66.2293 796.978 67.3174ZM796.131 55.1674C794.437 55.1674 793.087 55.5099 792.079 56.195C791.272 55.0263 790.869 53.8375 790.869 52.6286C790.869 51.4196 791.373 50.4726 792.381 49.7875C793.429 49.0621 794.921 48.6995 796.857 48.6995C798.308 48.6995 800.082 48.8204 802.179 49.0621C805.969 49.5054 808.57 49.7271 809.981 49.7271C811.433 49.7271 812.501 49.3845 813.187 48.6995C813.953 49.586 814.336 50.6942 814.336 52.0241C814.336 53.3136 813.811 54.3413 812.763 55.1069C811.755 55.8726 810.344 56.2554 808.529 56.2554C807.804 56.2554 806.856 56.195 805.687 56.0741L802.118 55.7114C800.909 55.5905 799.76 55.4696 798.671 55.3487C797.582 55.2278 796.736 55.1674 796.131 55.1674ZM842.448 82.1875C843.456 82.8726 843.96 83.9808 843.96 85.5122C843.96 87.0032 843.577 88.2323 842.811 89.1995C842.045 90.1666 841.037 90.9726 839.787 91.6174C837.207 92.9472 834.525 93.6122 831.743 93.6122C828.961 93.6122 826.744 93.3099 825.09 92.7054C823.478 92.101 822.127 91.2345 821.038 90.1062C818.901 87.9704 817.833 84.948 817.833 81.039C817.833 74.9539 819.486 70.0577 822.792 66.3502C826.34 62.3607 831.199 60.3659 837.368 60.3659C841.198 60.3659 844.061 61.1719 845.956 62.7838C847.368 63.9927 848.073 65.5845 848.073 67.5592C848.073 74.6517 841.944 78.198 829.687 78.198C829.526 79.2457 829.445 80.2129 829.445 81.0995C829.445 82.9532 829.848 84.2427 830.655 84.9681C831.501 85.6532 832.691 85.9957 834.223 85.9957C835.755 85.9957 837.328 85.6532 838.94 84.9681C840.594 84.2427 841.763 83.3159 842.448 82.1875ZM830.11 75.5987C832.973 75.5987 835.231 74.7122 836.884 72.939C838.537 71.2465 839.364 69.0502 839.364 66.3502C839.364 65.4233 839.182 64.7181 838.82 64.2345C838.497 63.7107 837.993 63.4487 837.307 63.4487C836.622 63.4487 835.977 63.5898 835.372 63.8719C834.808 64.1136 834.223 64.6778 833.618 65.5644C832.126 67.5793 830.957 70.9241 830.11 75.5987ZM868.228 71.186C868.792 69.695 869.074 68.3047 869.074 67.0151C869.074 64.6375 868.107 63.4487 866.171 63.4487C865.163 63.4487 864.236 63.9122 863.389 64.839C862.583 65.7256 862.179 66.733 862.179 67.8614C862.179 68.6674 862.502 69.3927 863.147 70.0375C864.074 70.9241 865.728 72.0927 868.107 73.5435C870.485 74.9942 872.118 76.3241 873.006 77.533C873.933 78.7017 874.397 80.1122 874.397 81.7644C874.397 83.3763 873.993 84.9278 873.187 86.4189C872.421 87.9099 871.332 89.1793 869.921 90.2271C866.897 92.4838 862.966 93.6122 858.127 93.6122C855.506 93.6122 853.188 92.9271 851.172 91.5569C849.156 90.2271 848.148 88.7763 848.148 87.2047C848.148 85.633 848.712 84.3838 849.841 83.4569C851.011 82.5301 852.442 82.0666 854.135 82.0666C855.829 82.0666 857.2 82.389 858.248 83.0338C857.724 84.3636 857.462 85.4719 857.462 86.3584C857.462 89.0181 858.591 90.348 860.849 90.348C861.816 90.348 862.623 90.0457 863.268 89.4413C863.913 88.8368 864.236 88.0107 864.236 86.9629C864.236 84.9077 862.502 82.792 859.034 80.6159C856.212 78.7622 854.478 77.4726 853.833 76.7472C852.744 75.4577 852.2 74.0069 852.2 72.395C852.2 70.783 852.583 69.2114 853.349 67.6801C854.115 66.1487 855.204 64.839 856.615 63.751C859.559 61.4942 863.591 60.3659 868.711 60.3659C871.332 60.3659 873.409 60.8898 874.941 61.9375C876.513 62.9853 877.3 64.3957 877.3 66.1689C877.3 67.942 876.755 69.3323 875.667 70.3398C874.618 71.3472 873.127 71.851 871.191 71.851C869.861 71.851 868.873 71.6293 868.228 71.186Z" fill="black"/>
<path d="M702.134 108.442C702.924 106.862 704.166 105.649 705.859 104.803C707.609 103.9 709.67 103.449 712.041 103.449C715.766 103.449 718.73 104.803 720.931 107.511C723.189 110.162 724.318 114.422 724.318 120.289V150.501L743.709 105.141H753.7L755.986 147.962L755.732 150.417L775.885 105.141H787.485L760.389 160.91H742.354L740.66 135.184L729.483 160.91H709.077L706.537 120.289C706.368 117.243 705.86 114.732 705.013 112.758C704.222 110.727 703.263 109.288 702.134 108.442ZM820.02 147.878C821.092 149.232 821.628 151.009 821.628 153.209C821.628 156.256 820.499 158.597 818.241 160.233C815.983 161.813 813.076 162.603 809.52 162.603C807.488 162.603 804.919 162.377 801.815 161.926C795.718 160.967 791.738 160.487 789.876 160.487C788.013 160.487 786.715 160.544 785.981 160.656C785.247 160.713 784.287 160.798 783.102 160.91L793.517 105.057H830.011C830.011 108.498 829.165 111.122 827.471 112.927C825.834 114.732 823.378 115.635 820.104 115.635C816.83 115.635 813.528 114.873 810.197 113.35L807.572 128.16H822.644C822.644 131.15 821.911 133.491 820.443 135.184C818.975 136.82 817 137.638 814.516 137.638C812.088 137.638 810.113 137.356 808.589 136.792C807.064 136.228 806.218 135.861 806.048 135.692L803 151.686C804.355 151.855 806.302 151.94 808.843 151.94C813.189 151.94 816.915 150.586 820.02 147.878ZM828.578 160.487L839.247 105.057C845.908 104.492 851.384 104.21 855.674 104.21C859.964 104.21 863.492 104.408 866.258 104.803C869.024 105.141 871.338 105.79 873.201 106.749C876.927 108.555 878.79 111.94 878.79 116.904C878.79 119.782 877.548 122.433 875.064 124.859C872.75 127.06 870.322 128.414 867.782 128.921C870.492 129.373 872.806 130.614 874.725 132.645C876.757 134.789 877.774 137.525 877.774 140.854C877.774 147.285 875.374 152.391 870.576 156.171C865.778 159.895 858.665 161.757 849.238 161.757C842.747 161.757 835.86 161.334 828.578 160.487ZM847.376 155.579C847.884 155.635 848.194 155.663 848.307 155.663H849.069C853.698 155.663 857 154.14 858.976 151.094C860.444 148.724 861.177 145.367 861.177 141.023C861.177 138.71 860.415 136.933 858.891 135.692C857.424 134.45 854.996 133.773 851.609 133.661L847.376 155.579ZM864.48 116.989C864.48 112.306 862.222 109.965 857.706 109.965H856.944C856.718 109.965 856.436 109.993 856.097 110.05L852.71 127.906H853.557C860.839 127.737 864.48 124.098 864.48 116.989Z" fill="#008724"/>
<path d="M919.352 53.9466C904.778 57.5406 891.878 69.1585 886.602 83.7018C883.92 91.0569 883.251 102.173 885.094 109.947C890.706 133.6 913.49 149.23 937.364 145.803C946.41 144.466 948.42 143.547 948.42 140.872C948.42 138.866 948.252 138.782 945.738 139.284L942.974 139.869L945.321 137.362C947.331 135.272 947.583 134.436 947.164 131.929L946.577 129.003L940.797 134.771C937.698 137.947 934.682 140.538 934.18 140.538C933.676 140.538 933.342 136.86 933.342 130.508C933.342 121.481 933.509 120.478 934.85 120.478C936.358 120.478 940.964 121.481 944.063 122.484C945.656 122.985 945.908 122.818 945.908 120.979C945.908 118.305 944.063 117.302 938.033 116.633L933.342 116.048V109.111V102.09L935.688 102.006C936.944 102.006 941.718 101.923 946.325 101.923H954.702L954.619 105.099C954.619 106.938 954.452 109.612 954.2 111.2C953.948 113.373 954.282 114.209 955.708 115.212C957.466 116.382 957.55 116.299 958.304 113.206C958.806 111.451 959.393 108.275 959.728 106.102L960.23 102.257L966.514 101.923C970.032 101.756 973.048 101.923 973.13 102.173C973.884 103.344 970.953 114.042 968.606 118.639C966.177 123.403 966.177 123.654 967.602 124.991C969.445 126.663 969.864 126.245 973.048 119.893C980.166 105.6 978.91 87.045 969.864 73.4213C963.498 63.8929 951.855 55.9525 941.049 53.6958C935.269 52.5257 924.882 52.6092 919.352 53.9466ZM915.165 62.9735C913.405 64.9794 911.145 67.8212 910.306 69.3258C909.385 70.7465 908.464 72.0004 908.212 72.0004C907.962 72.0004 906.704 71.081 905.28 69.9107L902.768 67.8212L905.28 65.7317C907.962 63.475 917.594 58.5437 918.181 59.045C918.348 59.2959 917.008 61.0511 915.165 62.9735ZM928.316 68.7406V78.8541L925.636 78.269C920.024 77.1824 914.159 75.2599 913.657 74.4241C913.322 74.0062 914.159 72.084 915.417 70.2452C917.929 66.6511 926.306 58.6271 927.562 58.6271C927.981 58.6271 928.316 63.1405 928.316 68.7406ZM939.374 62.7226C944.567 67.4869 948.839 73.1704 948.085 74.4241C947.498 75.3435 941.049 77.4332 936.525 78.269L933.342 78.7705V68.657C933.342 63.1405 933.676 58.6271 934.096 58.6271C934.515 58.6271 936.944 60.4659 939.374 62.7226ZM954.702 64.4778C956.796 65.8988 958.472 67.4033 958.472 67.8212C958.472 68.5734 953.53 72.4183 953.111 71.9167C953.026 71.7495 951.686 69.9107 950.347 67.8212C948.922 65.7317 946.744 63.1405 945.571 62.0541C944.4 60.8838 943.394 59.7138 943.394 59.3795C943.394 58.3764 950.514 61.5526 954.702 64.4778ZM904.778 80.6928C903.522 84.2868 901.51 93.8988 901.51 96.4064C901.51 96.8242 898.496 97.0749 894.894 97.0749H888.192L888.694 93.8988C889.7 86.7107 892.212 80.5257 896.402 74.675L899.081 71.081L902.684 73.7556L906.369 76.3466L904.778 80.6928ZM966.764 76.9317C969.612 81.3615 972.124 88.048 973.048 93.4809L973.55 97.0749H966.848C963.163 97.0749 960.147 96.8242 960.147 96.4064C960.147 93.8152 958.137 84.2868 956.796 80.6093L955.288 76.1793L958.724 73.7556C962.744 70.9973 963.078 71.081 966.764 76.9317ZM915.417 80.2749C917.762 81.1943 921.699 82.1973 924.044 82.5316L928.316 83.1167V90.0541V97.0749H917.427H906.536V94.7346C906.536 90.639 909.887 78.6869 910.976 78.6869C911.06 78.6869 913.07 79.4391 915.417 80.2749ZM952.776 83.5346C953.613 85.9586 954.534 89.9705 954.786 92.4779L955.373 97.0749H944.315H933.342V90.0541V83.0331L937.781 82.4482C940.128 82.1973 943.813 81.1943 945.908 80.3585C948 79.5227 950.095 78.9376 950.514 79.0212C951.016 79.1048 952.022 81.1943 952.776 83.5346ZM902.264 108.024C902.768 111.033 903.857 115.547 904.778 118.138L906.369 122.818L902.768 125.326L899.081 127.917L897.071 125.242C892.884 119.809 890.12 112.956 888.612 104.848L888.192 102.173L894.224 101.923C897.575 101.756 900.506 101.839 900.841 102.09C901.176 102.341 901.847 105.015 902.264 108.024ZM928.316 109.111V116.048L923.709 116.633C921.112 116.884 917.175 117.887 914.913 118.723L910.726 120.311L909.552 117.636C908.212 114.376 906.536 107.021 906.536 104.179V102.09H917.427H928.316V109.111ZM928.316 130.508C928.316 136.024 928.066 140.538 927.814 140.538C925.469 140.538 913.238 127.332 913.238 124.824C913.238 123.654 922.034 120.812 926.473 120.561C928.316 120.478 928.316 120.645 928.316 130.508ZM910.224 129.421C910.893 130.759 912.988 133.517 914.913 135.69C916.84 137.947 918.014 139.702 917.51 139.702C916.086 139.702 907.29 135.021 904.861 133.015L902.768 131.344L905.113 129.254C908.129 126.579 908.716 126.663 910.224 129.421Z" fill="#008724"/>
<path d="M948.754 116.466C949.006 117.552 949.76 123.236 950.514 129.254C951.268 135.188 952.022 140.955 952.272 142.042L952.692 143.964L955.958 142.125C957.802 141.039 959.393 140.37 959.56 140.621C959.728 140.788 961.236 143.463 962.911 146.555L966.01 152.155L968.524 150.734C969.864 149.982 971.036 148.979 971.036 148.645C971.036 148.227 969.697 145.469 968.022 142.543C966.346 139.534 965.088 137.027 965.256 136.86C965.425 136.692 967.016 135.857 968.858 134.937L972.042 133.266L960.734 123.988C954.452 118.806 949.174 114.627 948.922 114.627C948.587 114.627 948.587 115.463 948.754 116.466Z" fill="#008724"/>
<path d="M444.381 195.4H451.221C454.438 195.4 456.82 196.135 458.365 197.604C459.936 199.073 460.721 201.252 460.721 204.14C460.721 207.028 459.936 209.207 458.365 210.676C456.82 212.145 454.438 212.88 451.221 212.88H448.181V222H444.381V195.4ZM451.221 210.22C453.146 210.22 454.578 209.726 455.515 208.738C456.452 207.75 456.921 206.217 456.921 204.14C456.921 202.063 456.452 200.53 455.515 199.542C454.578 198.554 453.146 198.06 451.221 198.06H448.181V210.22H451.221ZM469.685 222.38C467.709 222.38 466.164 221.861 465.049 220.822C463.96 219.758 463.415 218.314 463.415 216.49C463.415 214.691 464.061 213.298 465.353 212.31C466.67 211.297 468.748 210.79 471.585 210.79H474.625V209.84C474.625 208.345 474.27 207.218 473.561 206.458C472.877 205.673 471.902 205.28 470.635 205.28C469.723 205.28 468.735 205.571 467.671 206.154C467.139 206.458 466.734 206.737 466.455 206.99H466.075L464.745 204.71C465.252 204.33 465.822 203.988 466.455 203.684C467.823 202.975 469.343 202.62 471.015 202.62C472.459 202.62 473.738 202.937 474.853 203.57C475.968 204.178 476.842 205.039 477.475 206.154C478.108 207.243 478.425 208.472 478.425 209.84V222H475.765L475.385 219.72H475.195C474.84 220.227 474.397 220.67 473.865 221.05C472.75 221.937 471.357 222.38 469.685 222.38ZM470.635 219.53C471.572 219.53 472.522 219.15 473.485 218.39C473.916 218.035 474.296 217.655 474.625 217.25V213.45H471.585C470.141 213.45 469.052 213.729 468.317 214.286C467.582 214.843 467.215 215.578 467.215 216.49C467.215 217.478 467.494 218.238 468.051 218.77C468.634 219.277 469.495 219.53 470.635 219.53ZM469.571 201.1L471.281 195.4H475.461L472.041 201.1H469.571ZM490.386 229.98C488.664 229.98 487.144 229.638 485.826 228.954C485.142 228.625 484.572 228.27 484.116 227.89L485.446 225.61H485.826C486.08 225.863 486.485 226.155 487.042 226.484C488.056 227.041 489.044 227.32 490.006 227.32C491.628 227.32 492.818 226.927 493.578 226.142C494.364 225.357 494.756 224.103 494.756 222.38V221.24C494.376 221.468 493.958 221.658 493.502 221.81C492.565 222.19 491.59 222.38 490.576 222.38C488.296 222.38 486.46 221.544 485.066 219.872C483.673 218.175 482.976 215.717 482.976 212.5C482.976 210.372 483.28 208.573 483.888 207.104C484.522 205.609 485.358 204.495 486.396 203.76C487.435 203 488.575 202.62 489.816 202.62C491.362 202.62 492.755 203.063 493.996 203.95C494.604 204.431 495.048 204.875 495.326 205.28H495.516L495.896 203H498.556V222.38C498.556 224.685 497.822 226.522 496.352 227.89C494.908 229.283 492.92 229.98 490.386 229.98ZM491.146 219.72C492.008 219.72 492.869 219.593 493.73 219.34C494.186 219.213 494.528 219.087 494.756 218.96V207.75C494.402 207.319 494.022 206.939 493.616 206.61C492.654 205.85 491.704 205.47 490.766 205.47C489.601 205.47 488.638 206.04 487.878 207.18C487.144 208.32 486.776 210.093 486.776 212.5C486.776 215.008 487.169 216.845 487.954 218.01C488.765 219.15 489.829 219.72 491.146 219.72ZM506.162 199.96C505.503 199.96 504.959 199.745 504.528 199.314C504.097 198.883 503.882 198.339 503.882 197.68C503.882 197.021 504.097 196.477 504.528 196.046C504.959 195.615 505.503 195.4 506.162 195.4C506.821 195.4 507.365 195.615 507.796 196.046C508.227 196.477 508.442 197.021 508.442 197.68C508.442 198.339 508.227 198.883 507.796 199.314C507.365 199.745 506.821 199.96 506.162 199.96ZM504.262 222V203H508.062V222H504.262ZM513.762 203H516.422L516.802 205.28H516.992C517.271 204.875 517.714 204.431 518.322 203.95C519.563 203.063 520.957 202.62 522.502 202.62C524.402 202.62 525.947 203.228 527.138 204.444C528.354 205.635 528.962 207.18 528.962 209.08V222H525.162V209.08C525.162 208.016 524.82 207.155 524.136 206.496C523.477 205.812 522.616 205.47 521.552 205.47C520.615 205.47 519.665 205.85 518.702 206.61C518.297 206.965 517.917 207.345 517.562 207.75V222H513.762V203ZM539.599 222.38C537.623 222.38 536.078 221.861 534.963 220.822C533.874 219.758 533.329 218.314 533.329 216.49C533.329 214.691 533.975 213.298 535.267 212.31C536.584 211.297 538.662 210.79 541.499 210.79H544.539V209.84C544.539 208.345 544.184 207.218 543.475 206.458C542.791 205.673 541.816 205.28 540.549 205.28C539.637 205.28 538.649 205.571 537.585 206.154C537.053 206.458 536.648 206.737 536.369 206.99H535.989L534.659 204.71C535.166 204.33 535.736 203.988 536.369 203.684C537.737 202.975 539.257 202.62 540.929 202.62C542.373 202.62 543.652 202.937 544.767 203.57C545.882 204.178 546.756 205.039 547.389 206.154C548.022 207.243 548.339 208.472 548.339 209.84V222H545.679L545.299 219.72H545.109C544.754 220.227 544.311 220.67 543.779 221.05C542.664 221.937 541.271 222.38 539.599 222.38ZM540.549 219.53C541.486 219.53 542.436 219.15 543.399 218.39C543.83 218.035 544.21 217.655 544.539 217.25V213.45H541.499C540.055 213.45 538.966 213.729 538.231 214.286C537.496 214.843 537.129 215.578 537.129 216.49C537.129 217.478 537.408 218.238 537.965 218.77C538.548 219.277 539.409 219.53 540.549 219.53ZM572.272 222.38C569.637 222.38 567.585 221.544 566.116 219.872C564.646 218.2 563.912 215.743 563.912 212.5C563.912 209.283 564.621 206.838 566.04 205.166C567.458 203.469 569.346 202.62 571.702 202.62C574.058 202.62 575.945 203.469 577.364 205.166C578.782 206.838 579.492 209.283 579.492 212.5V213.07L578.732 213.83H567.712C567.712 215.781 568.142 217.25 569.004 218.238C569.865 219.226 571.081 219.72 572.652 219.72C573.589 219.72 574.564 219.441 575.578 218.884C576.11 218.58 576.528 218.289 576.832 218.01H577.212L578.542 220.29C578.086 220.67 577.516 221.025 576.832 221.354C575.514 222.038 573.994 222.38 572.272 222.38ZM575.692 211.17C575.692 209.169 575.324 207.687 574.59 206.724C573.88 205.761 572.918 205.28 571.702 205.28C570.486 205.28 569.51 205.761 568.776 206.724C568.066 207.687 567.712 209.169 567.712 211.17H575.692ZM584.047 203H586.707L587.087 205.28H587.277C587.632 204.875 588.088 204.431 588.645 203.95C589.836 203.063 591.09 202.62 592.407 202.62C593.877 202.62 595.156 203.063 596.245 203.95C596.752 204.406 597.119 204.849 597.347 205.28C597.702 204.9 598.221 204.457 598.905 203.95C600.324 203.063 601.705 202.62 603.047 202.62C604.187 202.62 605.213 202.899 606.125 203.456C607.063 203.988 607.797 204.748 608.329 205.736C608.861 206.724 609.127 207.839 609.127 209.08V222H605.327V209.08C605.327 208.041 605.011 207.18 604.377 206.496C603.744 205.812 602.984 205.47 602.097 205.47C601.312 205.47 600.476 205.787 599.589 206.42C599.311 206.597 598.943 206.914 598.487 207.37V222H594.687V209.08C594.687 208.041 594.371 207.18 593.737 206.496C593.104 205.812 592.344 205.47 591.457 205.47C590.647 205.47 589.811 205.85 588.949 206.61C588.62 206.889 588.253 207.269 587.847 207.75V222H584.047V203ZM626.217 195.4H631.917C635.616 195.4 638.377 196.451 640.201 198.554C642.025 200.657 642.937 204.039 642.937 208.7C642.937 213.361 642.025 216.743 640.201 218.846C638.377 220.949 635.616 222 631.917 222H626.217V195.4ZM631.917 219.34C634.324 219.34 636.122 218.529 637.313 216.908C638.529 215.287 639.137 212.551 639.137 208.7C639.137 204.849 638.529 202.113 637.313 200.492C636.122 198.871 634.324 198.06 631.917 198.06H630.017V219.34H631.917ZM655.285 222.38C652.651 222.38 650.599 221.544 649.129 219.872C647.66 218.2 646.925 215.743 646.925 212.5C646.925 209.283 647.635 206.838 649.053 205.166C650.472 203.469 652.359 202.62 654.715 202.62C657.071 202.62 658.959 203.469 660.377 205.166C661.796 206.838 662.505 209.283 662.505 212.5V213.07L661.745 213.83H650.725C650.725 215.781 651.156 217.25 652.017 218.238C652.879 219.226 654.095 219.72 655.665 219.72C656.603 219.72 657.578 219.441 658.591 218.884C659.123 218.58 659.541 218.289 659.845 218.01H660.225L661.555 220.29C661.099 220.67 660.529 221.025 659.845 221.354C658.528 222.038 657.008 222.38 655.285 222.38ZM658.705 211.17C658.705 209.169 658.338 207.687 657.603 206.724C656.894 205.761 655.931 205.28 654.715 205.28C653.499 205.28 652.524 205.761 651.789 206.724C651.08 207.687 650.725 209.169 650.725 211.17H658.705ZM672.571 222.38C670.494 222.38 668.746 222.038 667.327 221.354C666.592 221.025 665.997 220.67 665.541 220.29L666.871 218.01H667.251C667.53 218.263 667.973 218.555 668.581 218.884C669.746 219.441 670.95 219.72 672.191 219.72C673.711 219.72 674.813 219.479 675.497 218.998C676.206 218.517 676.561 217.871 676.561 217.06C676.561 216.224 676.194 215.591 675.459 215.16C674.75 214.729 673.635 214.261 672.115 213.754C670.772 213.298 669.696 212.88 668.885 212.5C668.074 212.12 667.378 211.575 666.795 210.866C666.212 210.157 665.921 209.245 665.921 208.13C665.921 206.433 666.516 205.09 667.707 204.102C668.923 203.114 670.734 202.62 673.141 202.62C674.94 202.62 676.574 202.975 678.043 203.684C678.752 204.013 679.335 204.355 679.791 204.71L678.461 206.99H678.081C677.701 206.711 677.27 206.433 676.789 206.154C675.674 205.571 674.585 205.28 673.521 205.28C672.254 205.28 671.304 205.521 670.671 206.002C670.038 206.458 669.721 207.041 669.721 207.75C669.721 208.586 670.076 209.219 670.785 209.65C671.52 210.081 672.647 210.549 674.167 211.056C675.51 211.512 676.586 211.93 677.397 212.31C678.208 212.69 678.904 213.235 679.487 213.944C680.07 214.653 680.361 215.565 680.361 216.68C680.361 218.479 679.728 219.885 678.461 220.898C677.194 221.886 675.231 222.38 672.571 222.38ZM691.949 222.38C689.315 222.38 687.263 221.544 685.793 219.872C684.324 218.2 683.589 215.743 683.589 212.5C683.589 209.283 684.299 206.838 685.717 205.166C687.136 203.469 689.023 202.62 691.379 202.62C693.735 202.62 695.623 203.469 697.041 205.166C698.46 206.838 699.169 209.283 699.169 212.5V213.07L698.409 213.83H687.389C687.389 215.781 687.82 217.25 688.681 218.238C689.543 219.226 690.759 219.72 692.329 219.72C693.267 219.72 694.242 219.441 695.255 218.884C695.787 218.58 696.205 218.289 696.509 218.01H696.889L698.219 220.29C697.763 220.67 697.193 221.025 696.509 221.354C695.192 222.038 693.672 222.38 691.949 222.38ZM695.369 211.17C695.369 209.169 695.002 207.687 694.267 206.724C693.558 205.761 692.595 205.28 691.379 205.28C690.163 205.28 689.188 205.761 688.453 206.724C687.744 207.687 687.389 209.169 687.389 211.17H695.369ZM703.725 203H706.385L706.765 205.28H706.955C707.234 204.875 707.677 204.431 708.285 203.95C709.526 203.063 710.92 202.62 712.465 202.62C714.365 202.62 715.91 203.228 717.101 204.444C718.317 205.635 718.925 207.18 718.925 209.08V222H715.125V209.08C715.125 208.016 714.783 207.155 714.099 206.496C713.44 205.812 712.579 205.47 711.515 205.47C710.578 205.47 709.628 205.85 708.665 206.61C708.26 206.965 707.88 207.345 707.525 207.75V222H703.725V203ZM722.532 203H725.952L729.942 215.54C730.043 215.819 730.119 216.148 730.17 216.528C730.246 216.883 730.297 217.136 730.322 217.288L730.436 218.2H730.588L730.702 217.288C730.727 217.136 730.765 216.883 730.816 216.528C730.892 216.148 730.981 215.819 731.082 215.54L735.072 203H738.226L732.146 222H728.612L722.532 203ZM749.502 222.38C746.943 222.38 744.942 221.544 743.498 219.872C742.054 218.2 741.332 215.743 741.332 212.5C741.332 209.257 742.054 206.8 743.498 205.128C744.942 203.456 746.943 202.62 749.502 202.62C752.035 202.62 754.024 203.456 755.468 205.128C756.937 206.8 757.672 209.257 757.672 212.5C757.672 215.743 756.937 218.2 755.468 219.872C754.024 221.544 752.035 222.38 749.502 222.38ZM749.502 219.72C750.819 219.72 751.87 219.15 752.656 218.01C753.466 216.845 753.872 215.008 753.872 212.5C753.872 209.992 753.466 208.168 752.656 207.028C751.87 205.863 750.819 205.28 749.502 205.28C748.184 205.28 747.12 205.863 746.31 207.028C745.524 208.168 745.132 209.992 745.132 212.5C745.132 215.008 745.524 216.845 746.31 218.01C747.12 219.15 748.184 219.72 749.502 219.72ZM762.432 222V196.54L763.572 195.4H766.232V222H762.432ZM770.032 203H773.452L777.442 215.54C777.543 215.819 777.619 216.148 777.67 216.528C777.746 216.883 777.797 217.136 777.822 217.288L777.936 218.2H778.088L778.202 217.288C778.227 217.136 778.265 216.883 778.316 216.528C778.392 216.148 778.481 215.819 778.582 215.54L782.572 203H785.726L779.646 222H776.112L770.032 203ZM791.682 199.96C791.023 199.96 790.478 199.745 790.048 199.314C789.617 198.883 789.402 198.339 789.402 197.68C789.402 197.021 789.617 196.477 790.048 196.046C790.478 195.615 791.023 195.4 791.682 195.4C792.34 195.4 792.885 195.615 793.316 196.046C793.746 196.477 793.962 197.021 793.962 197.68C793.962 198.339 793.746 198.883 793.316 199.314C792.885 199.745 792.34 199.96 791.682 199.96ZM789.782 222V203H793.582V222H789.782ZM799.282 203H801.942L802.322 205.28H802.512C802.866 204.875 803.322 204.431 803.88 203.95C805.07 203.063 806.324 202.62 807.642 202.62C809.111 202.62 810.39 203.063 811.48 203.95C811.986 204.406 812.354 204.849 812.582 205.28C812.936 204.9 813.456 204.457 814.14 203.95C815.558 203.063 816.939 202.62 818.282 202.62C819.422 202.62 820.448 202.899 821.36 203.456C822.297 203.988 823.032 204.748 823.564 205.736C824.096 206.724 824.362 207.839 824.362 209.08V222H820.562V209.08C820.562 208.041 820.245 207.18 819.612 206.496C818.978 205.812 818.218 205.47 817.332 205.47C816.546 205.47 815.71 205.787 814.824 206.42C814.545 206.597 814.178 206.914 813.722 207.37V222H809.922V209.08C809.922 208.041 809.605 207.18 808.972 206.496C808.338 205.812 807.578 205.47 806.692 205.47C805.881 205.47 805.045 205.85 804.184 206.61C803.854 206.889 803.487 207.269 803.082 207.75V222H799.282V203ZM837.27 222.38C834.635 222.38 832.583 221.544 831.114 219.872C829.644 218.2 828.91 215.743 828.91 212.5C828.91 209.283 829.619 206.838 831.038 205.166C832.456 203.469 834.344 202.62 836.7 202.62C839.056 202.62 840.943 203.469 842.362 205.166C843.78 206.838 844.49 209.283 844.49 212.5V213.07L843.73 213.83H832.71C832.71 215.781 833.14 217.25 834.002 218.238C834.863 219.226 836.079 219.72 837.65 219.72C838.587 219.72 839.562 219.441 840.576 218.884C841.108 218.58 841.526 218.289 841.83 218.01H842.21L843.54 220.29C843.084 220.67 842.514 221.025 841.83 221.354C840.512 222.038 838.992 222.38 837.27 222.38ZM840.69 211.17C840.69 209.169 840.322 207.687 839.588 206.724C838.878 205.761 837.916 205.28 836.7 205.28C835.484 205.28 834.508 205.761 833.774 206.724C833.064 207.687 832.71 209.169 832.71 211.17H840.69ZM849.045 203H851.705L852.085 205.28H852.275C852.554 204.875 852.997 204.431 853.605 203.95C854.847 203.063 856.24 202.62 857.785 202.62C859.685 202.62 861.231 203.228 862.421 204.444C863.637 205.635 864.245 207.18 864.245 209.08V222H860.445V209.08C860.445 208.016 860.103 207.155 859.419 206.496C858.761 205.812 857.899 205.47 856.835 205.47C855.898 205.47 854.948 205.85 853.985 206.61C853.58 206.965 853.2 207.345 852.845 207.75V222H849.045V203ZM876.782 222.38C874.882 222.38 873.362 221.823 872.222 220.708C871.082 219.593 870.512 218.124 870.512 216.3V205.66H867.662V203.38L872.602 198.44H874.312V203H879.062V205.66H874.312V216.3C874.312 217.415 874.566 218.263 875.072 218.846C875.579 219.429 876.276 219.72 877.162 219.72C877.922 219.72 878.67 219.467 879.404 218.96C879.734 218.732 880.063 218.479 880.392 218.2H880.772L882.102 220.48C881.545 220.911 881.038 221.227 880.582 221.43C879.366 222.063 878.1 222.38 876.782 222.38ZM892.187 222.38C889.629 222.38 887.627 221.544 886.183 219.872C884.739 218.2 884.017 215.743 884.017 212.5C884.017 209.257 884.739 206.8 886.183 205.128C887.627 203.456 889.629 202.62 892.187 202.62C894.721 202.62 896.709 203.456 898.153 205.128C899.623 206.8 900.357 209.257 900.357 212.5C900.357 215.743 899.623 218.2 898.153 219.872C896.709 221.544 894.721 222.38 892.187 222.38ZM892.187 219.72C893.505 219.72 894.556 219.15 895.341 218.01C896.152 216.845 896.557 215.008 896.557 212.5C896.557 209.992 896.152 208.168 895.341 207.028C894.556 205.863 893.505 205.28 892.187 205.28C890.87 205.28 889.806 205.863 888.995 207.028C888.21 208.168 887.817 209.992 887.817 212.5C887.817 215.008 888.21 216.845 888.995 218.01C889.806 219.15 890.87 219.72 892.187 219.72ZM903.788 225.61C904.117 225.331 904.459 225.002 904.814 224.622C905.523 223.862 905.878 223.115 905.878 222.38C905.295 222.38 904.801 222.165 904.396 221.734C903.99 221.303 903.788 220.759 903.788 220.1C903.788 219.441 903.99 218.897 904.396 218.466C904.801 218.035 905.295 217.82 905.878 217.82C906.638 217.82 907.233 218.061 907.664 218.542C908.12 218.998 908.348 219.644 908.348 220.48C908.348 222.329 907.778 223.951 906.638 225.344C906.131 226.003 905.561 226.535 904.928 226.94L903.788 225.61ZM921.846 203H925.266L929.256 215.54C929.358 215.819 929.434 216.148 929.484 216.528C929.56 216.883 929.611 217.136 929.636 217.288L929.75 218.2H929.902L930.016 217.288C930.042 217.136 930.08 216.883 930.13 216.528C930.206 216.148 930.295 215.819 930.396 215.54L934.386 203H937.54L931.46 222H927.926L921.846 203ZM948.816 222.38C946.257 222.38 944.256 221.544 942.812 219.872C941.368 218.2 940.646 215.743 940.646 212.5C940.646 209.257 941.368 206.8 942.812 205.128C944.256 203.456 946.257 202.62 948.816 202.62C951.349 202.62 953.338 203.456 954.782 205.128C956.251 206.8 956.986 209.257 956.986 212.5C956.986 215.743 956.251 218.2 954.782 219.872C953.338 221.544 951.349 222.38 948.816 222.38ZM948.816 219.72C950.133 219.72 951.185 219.15 951.97 218.01C952.781 216.845 953.186 215.008 953.186 212.5C953.186 209.992 952.781 208.168 951.97 207.028C951.185 205.863 950.133 205.28 948.816 205.28C947.499 205.28 946.435 205.863 945.624 207.028C944.839 208.168 944.446 209.992 944.446 212.5C944.446 215.008 944.839 216.845 945.624 218.01C946.435 219.15 947.499 219.72 948.816 219.72ZM961.746 222V196.54L962.886 195.4H965.546V222H961.746ZM978.276 222.38C976.376 222.38 974.856 221.823 973.716 220.708C972.576 219.593 972.006 218.124 972.006 216.3V205.66H969.156V203.38L974.096 198.44H975.806V203H980.556V205.66H975.806V216.3C975.806 217.415 976.06 218.263 976.566 218.846C977.073 219.429 977.77 219.72 978.656 219.72C979.416 219.72 980.164 219.467 980.898 218.96C981.228 218.732 981.557 218.479 981.886 218.2H982.266L983.596 220.48C983.039 220.911 982.532 221.227 982.076 221.43C980.86 222.063 979.594 222.38 978.276 222.38ZM993.871 222.38C991.237 222.38 989.185 221.544 987.715 219.872C986.246 218.2 985.511 215.743 985.511 212.5C985.511 209.283 986.221 206.838 987.639 205.166C989.058 203.469 990.945 202.62 993.301 202.62C995.657 202.62 997.545 203.469 998.963 205.166C1000.38 206.838 1001.09 209.283 1001.09 212.5V213.07L1000.33 213.83H989.311C989.311 215.781 989.742 217.25 990.603 218.238C991.465 219.226 992.681 219.72 994.251 219.72C995.189 219.72 996.164 219.441 997.177 218.884C997.709 218.58 998.127 218.289 998.431 218.01H998.811L1000.14 220.29C999.685 220.67 999.115 221.025 998.431 221.354C997.114 222.038 995.594 222.38 993.871 222.38ZM997.291 211.17C997.291 209.169 996.924 207.687 996.189 206.724C995.48 205.761 994.517 205.28 993.301 205.28C992.085 205.28 991.11 205.761 990.375 206.724C989.666 207.687 989.311 209.169 989.311 211.17H997.291ZM1024.08 222.38C1021.44 222.38 1019.39 221.544 1017.92 219.872C1016.45 218.2 1015.72 215.743 1015.72 212.5C1015.72 209.283 1016.43 206.838 1017.85 205.166C1019.27 203.469 1021.15 202.62 1023.51 202.62C1025.86 202.62 1027.75 203.469 1029.17 205.166C1030.59 206.838 1031.3 209.283 1031.3 212.5V213.07L1030.54 213.83H1019.52C1019.52 215.781 1019.95 217.25 1020.81 218.238C1021.67 219.226 1022.89 219.72 1024.46 219.72C1025.4 219.72 1026.37 219.441 1027.38 218.884C1027.92 218.58 1028.33 218.289 1028.64 218.01H1029.02L1030.35 220.29C1029.89 220.67 1029.32 221.025 1028.64 221.354C1027.32 222.038 1025.8 222.38 1024.08 222.38ZM1027.5 211.17C1027.5 209.169 1027.13 207.687 1026.4 206.724C1025.69 205.761 1024.72 205.28 1023.51 205.28C1022.29 205.28 1021.32 205.761 1020.58 206.724C1019.87 207.687 1019.52 209.169 1019.52 211.17H1027.5ZM1035.85 203H1038.51L1038.89 205.28H1039.08C1039.44 204.875 1039.89 204.431 1040.45 203.95C1041.64 203.063 1042.9 202.62 1044.21 202.62C1045.68 202.62 1046.96 203.063 1048.05 203.95C1048.56 204.406 1048.93 204.849 1049.15 205.28C1049.51 204.9 1050.03 204.457 1050.71 203.95C1052.13 203.063 1053.51 202.62 1054.85 202.62C1055.99 202.62 1057.02 202.899 1057.93 203.456C1058.87 203.988 1059.6 204.748 1060.14 205.736C1060.67 206.724 1060.93 207.839 1060.93 209.08V222H1057.13V209.08C1057.13 208.041 1056.82 207.18 1056.18 206.496C1055.55 205.812 1054.79 205.47 1053.9 205.47C1053.12 205.47 1052.28 205.787 1051.4 206.42C1051.12 206.597 1050.75 206.914 1050.29 207.37V222H1046.49V209.08C1046.49 208.041 1046.18 207.18 1045.54 206.496C1044.91 205.812 1044.15 205.47 1043.26 205.47C1042.45 205.47 1041.62 205.85 1040.76 206.61C1040.43 206.889 1040.06 207.269 1039.65 207.75V222H1035.85V203ZM1086.19 222.38C1084.52 222.38 1083.13 221.937 1082.01 221.05C1081.48 220.67 1081.04 220.227 1080.68 219.72H1080.49L1080.11 222H1077.45V196.54L1078.59 195.4H1081.25V203.76C1081.56 203.583 1081.96 203.393 1082.47 203.19C1083.56 202.81 1084.55 202.62 1085.43 202.62C1087.71 202.62 1089.55 203.469 1090.94 205.166C1092.34 206.838 1093.03 209.283 1093.03 212.5C1093.03 214.628 1092.72 216.439 1092.08 217.934C1091.48 219.403 1090.65 220.518 1089.61 221.278C1088.57 222.013 1087.43 222.38 1086.19 222.38ZM1085.24 219.53C1086.41 219.53 1087.36 218.96 1088.09 217.82C1088.85 216.68 1089.23 214.907 1089.23 212.5C1089.23 209.992 1088.83 208.168 1088.02 207.028C1087.23 205.863 1086.18 205.28 1084.86 205.28C1084 205.28 1083.14 205.407 1082.28 205.66C1081.82 205.787 1081.48 205.913 1081.25 206.04V217.25C1081.61 217.681 1081.99 218.061 1082.39 218.39C1083.36 219.15 1084.31 219.53 1085.24 219.53ZM1097.79 203H1100.45L1100.83 205.28H1101.02C1101.27 204.9 1101.7 204.457 1102.31 203.95C1103.5 203.063 1104.84 202.62 1106.34 202.62C1107 202.62 1107.58 202.683 1108.09 202.81L1108.81 203L1108.24 206.04H1107.86C1107.68 206.015 1107.42 205.951 1107.06 205.85C1106.5 205.723 1105.95 205.66 1105.39 205.66C1104.55 205.66 1103.65 206.04 1102.69 206.8C1102.36 207.079 1101.99 207.459 1101.59 207.94V222H1097.79V203ZM1119.08 222.38C1116.44 222.38 1114.39 221.544 1112.92 219.872C1111.45 218.2 1110.72 215.743 1110.72 212.5C1110.72 209.283 1111.43 206.838 1112.85 205.166C1114.27 203.469 1116.15 202.62 1118.51 202.62C1120.86 202.62 1122.75 203.469 1124.17 205.166C1125.59 206.838 1126.3 209.283 1126.3 212.5V213.07L1125.54 213.83H1114.52C1114.52 215.781 1114.95 217.25 1115.81 218.238C1116.67 219.226 1117.89 219.72 1119.46 219.72C1120.4 219.72 1121.37 219.441 1122.38 218.884C1122.92 218.58 1123.33 218.289 1123.64 218.01H1124.02L1125.35 220.29C1124.89 220.67 1124.32 221.025 1123.64 221.354C1122.32 222.038 1120.8 222.38 1119.08 222.38ZM1122.5 211.17C1122.5 209.169 1122.13 207.687 1121.4 206.724C1120.69 205.761 1119.72 205.28 1118.51 205.28C1117.29 205.28 1116.32 205.761 1115.58 206.724C1114.87 207.687 1114.52 209.169 1114.52 211.17H1122.5ZM1128.95 203H1132.37L1136.36 215.54C1136.47 215.819 1136.54 216.148 1136.59 216.528C1136.67 216.883 1136.72 217.136 1136.74 217.288L1136.86 218.2H1137.01L1137.12 217.288C1137.15 217.136 1137.19 216.883 1137.24 216.528C1137.31 216.148 1137.4 215.819 1137.5 215.54L1141.49 203H1144.65L1138.57 222H1135.03L1128.95 203ZM1156.11 222.38C1153.48 222.38 1151.43 221.544 1149.96 219.872C1148.49 218.2 1147.75 215.743 1147.75 212.5C1147.75 209.283 1148.46 206.838 1149.88 205.166C1151.3 203.469 1153.19 202.62 1155.54 202.62C1157.9 202.62 1159.79 203.469 1161.21 205.166C1162.62 206.838 1163.33 209.283 1163.33 212.5V213.07L1162.57 213.83H1151.55C1151.55 215.781 1151.98 217.25 1152.85 218.238C1153.71 219.226 1154.92 219.72 1156.49 219.72C1157.43 219.72 1158.41 219.441 1159.42 218.884C1159.95 218.58 1160.37 218.289 1160.67 218.01H1161.05L1162.38 220.29C1161.93 220.67 1161.36 221.025 1160.67 221.354C1159.36 222.038 1157.84 222.38 1156.11 222.38ZM1159.53 211.17C1159.53 209.169 1159.17 207.687 1158.43 206.724C1157.72 205.761 1156.76 205.28 1155.54 205.28C1154.33 205.28 1153.35 205.761 1152.62 206.724C1151.91 207.687 1151.55 209.169 1151.55 211.17H1159.53Z" fill="black"/>
<rect y="269" width="1606" height="11" fill="#008724"/>
<rect width="1606" height="11" fill="#008724"/>
</svg>
