<svg width="187" height="67" viewBox="0 0 187 67" fill="none" xmlns="http://www.w3.org/2000/svg">
<path d="M23.98 14.55C23.98 23.07 19.36 27.33 10.12 27.33C8.64 27.33 6.68 27.15 4.24 26.79L7.6 9.06C7.76 8.26 7.89 7.63 7.99 7.17C11.03 6.95 13.22 6.84 14.56 6.84C15.92 6.84 17.22 6.98 18.46 7.26C19.7 7.54 20.73 7.99 21.55 8.61C23.17 9.83 23.98 11.81 23.98 14.55ZM17.8 13.44C17.8 10.46 16.73 8.97 14.59 8.97H14.29C14.19 8.97 14.09 8.98 13.99 9L10.9 25.11C10.98 25.15 11.06 25.17 11.14 25.17H11.38C12.12 25.17 12.87 24.94 13.63 24.48C14.41 24.02 15.1 23.32 15.7 22.38C17.1 20.2 17.8 17.22 17.8 13.44ZM32.0559 27.6C27.6559 27.6 25.4559 25.53 25.4559 21.39C25.4559 18.45 26.2659 16.03 27.8859 14.13C29.6059 12.11 31.9559 11.1 34.9359 11.1C37.0959 11.1 38.7259 11.6 39.8259 12.6C40.9259 13.6 41.4759 15.15 41.4759 17.25C41.4759 20.45 40.6159 22.98 38.8959 24.84C37.2159 26.68 34.9359 27.6 32.0559 27.6ZM32.8359 14.55C32.5959 15.09 32.3759 15.77 32.1759 16.59C31.9959 17.39 31.7859 18.43 31.5459 19.71C31.3059 20.99 31.1859 22.42 31.1859 24C31.1859 24.52 31.2659 24.95 31.4259 25.29C31.6059 25.63 31.9259 25.8 32.3859 25.8C32.8459 25.8 33.2159 25.69 33.4959 25.47C33.7959 25.25 34.0559 24.88 34.2759 24.36C34.6759 23.44 35.0359 22.13 35.3559 20.43C35.6759 18.71 35.8459 17.48 35.8659 16.74C35.9059 16 35.9259 15.36 35.9259 14.82C35.9259 14.26 35.8459 13.8 35.6859 13.44C35.5259 13.08 35.2159 12.9 34.7559 12.9C34.3159 12.9 33.9459 13.04 33.6459 13.32C33.3459 13.6 33.0759 14.01 32.8359 14.55ZM44.5305 26.1C44.0705 25.58 43.7305 24.91 43.5105 24.09C43.3105 23.27 43.2105 22.19 43.2105 20.85C43.2105 19.51 43.4405 18.23 43.9005 17.01C44.3605 15.79 45.0105 14.74 45.8505 13.86C47.5705 12.02 49.8505 11.1 52.6905 11.1C53.7105 11.1 54.5905 11.27 55.3305 11.61L60.4605 11.1L58.2405 22.8C58.1805 23.04 58.1505 23.38 58.1505 23.82C58.1505 24.26 58.2805 24.62 58.5405 24.9C58.8205 25.18 59.1605 25.34 59.5605 25.38C59.3605 26.06 58.8905 26.6 58.1505 27C57.4305 27.4 56.6605 27.6 55.8405 27.6C55.0205 27.6 54.3305 27.44 53.7705 27.12C53.2305 26.82 52.8805 26.41 52.7205 25.89C52.4005 26.39 51.9005 26.8 51.2205 27.12C50.5405 27.44 49.7405 27.6 48.8205 27.6C47.9205 27.6 47.1005 27.48 46.3605 27.24C45.6205 27 45.0105 26.62 44.5305 26.1ZM50.8605 13.92C50.6405 14.28 50.4305 14.77 50.2305 15.39C50.0305 15.99 49.7605 17.11 49.4205 18.75C49.1005 20.37 48.9405 21.76 48.9405 22.92C48.9405 24.08 49.0305 24.83 49.2105 25.17C49.3905 25.51 49.6405 25.68 49.9605 25.68C50.6005 25.68 51.1505 25.38 51.6105 24.78C52.0905 24.16 52.4205 23.31 52.6005 22.23L54.1905 13.44C53.7705 13.08 53.3105 12.9 52.8105 12.9C52.3305 12.9 51.9405 12.98 51.6405 13.14C51.3605 13.3 51.1005 13.56 50.8605 13.92ZM76.6912 14.52C76.6912 15.36 76.3412 16.04 75.6412 16.56C74.9412 17.08 74.0212 17.34 72.8812 17.34C72.4012 17.34 72.0212 17.27 71.7412 17.13C71.9612 16.61 72.1012 16.03 72.1612 15.39C72.2412 14.73 72.2812 14.31 72.2812 14.13C72.2812 13.29 71.9912 12.87 71.4112 12.87C71.0112 12.87 70.5812 13.12 70.1212 13.62C69.6812 14.12 69.2712 14.76 68.8912 15.54C68.0512 17.34 67.6312 19.15 67.6312 20.97C67.6312 21.97 67.8212 22.7 68.2012 23.16C68.5812 23.6 69.1912 23.82 70.0312 23.82C71.1912 23.82 72.2312 23.34 73.1512 22.38C73.4112 22.08 73.6112 21.76 73.7512 21.42C74.5112 21.82 74.8912 22.57 74.8912 23.67C74.8912 24.79 74.2712 25.72 73.0312 26.46C71.7512 27.22 70.0912 27.6 68.0512 27.6C63.9912 27.6 61.9612 25.45 61.9612 21.15C61.9612 18.01 62.8512 15.54 64.6312 13.74C66.3512 11.98 68.7912 11.1 71.9512 11.1C75.1112 11.1 76.6912 12.24 76.6912 14.52ZM67.2112 28.77C67.5312 28.73 68.0612 28.71 68.8012 28.71C69.5612 28.71 70.2512 28.94 70.8712 29.4C71.4912 29.86 71.8012 30.43 71.8012 31.11C71.8012 32.19 71.3812 33.06 70.5412 33.72C69.7212 34.4 68.6312 34.74 67.2712 34.74C66.3712 34.74 65.6612 34.6 65.1412 34.32C64.6212 34.04 64.3612 33.66 64.3612 33.18C64.3612 32.7 64.5412 32.32 64.9012 32.04C65.2812 32.68 65.9512 33 66.9112 33C67.4912 33 67.9312 32.88 68.2312 32.64C68.5512 32.42 68.7112 32.11 68.7112 31.71C68.7112 30.77 67.9512 30.3 66.4312 30.3C66.0312 30.3 65.6112 30.32 65.1712 30.36L66.2812 26.67H67.8412L67.2112 28.77ZM84.0285 27.6C79.6285 27.6 77.4285 25.53 77.4285 21.39C77.4285 18.45 78.2385 16.03 79.8585 14.13C81.5785 12.11 83.9285 11.1 86.9085 11.1C89.0685 11.1 90.6985 11.6 91.7985 12.6C92.8985 13.6 93.4485 15.15 93.4485 17.25C93.4485 20.45 92.5885 22.98 90.8685 24.84C89.1885 26.68 86.9085 27.6 84.0285 27.6ZM84.8085 14.55C84.5685 15.09 84.3485 15.77 84.1485 16.59C83.9685 17.39 83.7585 18.43 83.5185 19.71C83.2785 20.99 83.1585 22.42 83.1585 24C83.1585 24.52 83.2385 24.95 83.3985 25.29C83.5785 25.63 83.8985 25.8 84.3585 25.8C84.8185 25.8 85.1885 25.69 85.4685 25.47C85.7685 25.25 86.0285 24.88 86.2485 24.36C86.6485 23.44 87.0085 22.13 87.3285 20.43C87.6485 18.71 87.8185 17.48 87.8385 16.74C87.8785 16 87.8985 15.36 87.8985 14.82C87.8985 14.26 87.8185 13.8 87.6585 13.44C87.4985 13.08 87.1885 12.9 86.7285 12.9C86.2885 12.9 85.9185 13.04 85.6185 13.32C85.3185 13.6 85.0485 14.01 84.8085 14.55ZM84.3885 8.52C83.5485 8.52 82.8785 8.69 82.3785 9.03C81.9785 8.45 81.7785 7.86 81.7785 7.26C81.7785 6.66 82.0285 6.19 82.5285 5.85C83.0485 5.49 83.7885 5.31 84.7485 5.31C85.4685 5.31 86.3485 5.37 87.3885 5.49C89.2685 5.71 90.5585 5.82 91.2585 5.82C91.9785 5.82 92.5085 5.65 92.8485 5.31C93.2285 5.75 93.4185 6.3 93.4185 6.96C93.4185 7.6 93.1585 8.11 92.6385 8.49C92.1385 8.87 91.4385 9.06 90.5385 9.06C90.1785 9.06 89.7085 9.03 89.1285 8.97L87.3585 8.79C86.7585 8.73 86.1885 8.67 85.6485 8.61C85.1085 8.55 84.6885 8.52 84.3885 8.52ZM107.363 21.93C107.863 22.27 108.113 22.82 108.113 23.58C108.113 24.32 107.923 24.93 107.543 25.41C107.163 25.89 106.663 26.29 106.043 26.61C104.763 27.27 103.433 27.6 102.053 27.6C100.673 27.6 99.5731 27.45 98.7531 27.15C97.9531 26.85 97.2831 26.42 96.7431 25.86C95.6831 24.8 95.1531 23.3 95.1531 21.36C95.1531 18.34 95.9731 15.91 97.6131 14.07C99.3731 12.09 101.783 11.1 104.843 11.1C106.743 11.1 108.163 11.5 109.103 12.3C109.803 12.9 110.153 13.69 110.153 14.67C110.153 18.19 107.113 19.95 101.033 19.95C100.953 20.47 100.913 20.95 100.913 21.39C100.913 22.31 101.113 22.95 101.513 23.31C101.933 23.65 102.523 23.82 103.283 23.82C104.043 23.82 104.823 23.65 105.623 23.31C106.443 22.95 107.023 22.49 107.363 21.93ZM101.243 18.66C102.663 18.66 103.783 18.22 104.603 17.34C105.423 16.5 105.833 15.41 105.833 14.07C105.833 13.61 105.743 13.26 105.563 13.02C105.403 12.76 105.153 12.63 104.813 12.63C104.473 12.63 104.153 12.7 103.853 12.84C103.573 12.96 103.283 13.24 102.983 13.68C102.243 14.68 101.663 16.34 101.243 18.66ZM120.15 16.47C120.43 15.73 120.57 15.04 120.57 14.4C120.57 13.22 120.09 12.63 119.13 12.63C118.63 12.63 118.17 12.86 117.75 13.32C117.35 13.76 117.15 14.26 117.15 14.82C117.15 15.22 117.31 15.58 117.63 15.9C118.09 16.34 118.91 16.92 120.09 17.64C121.27 18.36 122.08 19.02 122.52 19.62C122.98 20.2 123.21 20.9 123.21 21.72C123.21 22.52 123.01 23.29 122.61 24.03C122.23 24.77 121.69 25.4 120.99 25.92C119.49 27.04 117.54 27.6 115.14 27.6C113.84 27.6 112.69 27.26 111.69 26.58C110.69 25.92 110.19 25.2 110.19 24.42C110.19 23.64 110.47 23.02 111.03 22.56C111.61 22.1 112.32 21.87 113.16 21.87C114 21.87 114.68 22.03 115.2 22.35C114.94 23.01 114.81 23.56 114.81 24C114.81 25.32 115.37 25.98 116.49 25.98C116.97 25.98 117.37 25.83 117.69 25.53C118.01 25.23 118.17 24.82 118.17 24.3C118.17 23.28 117.31 22.23 115.59 21.15C114.19 20.23 113.33 19.59 113.01 19.23C112.47 18.59 112.2 17.87 112.2 17.07C112.2 16.27 112.39 15.49 112.77 14.73C113.15 13.97 113.69 13.32 114.39 12.78C115.85 11.66 117.85 11.1 120.39 11.1C121.69 11.1 122.72 11.36 123.48 11.88C124.26 12.4 124.65 13.1 124.65 13.98C124.65 14.86 124.38 15.55 123.84 16.05C123.32 16.55 122.58 16.8 121.62 16.8C120.96 16.8 120.47 16.69 120.15 16.47Z" fill="white"/>
<path d="M37.764 34.96C38.156 34.176 38.772 33.574 39.612 33.154C40.48 32.706 41.502 32.482 42.678 32.482C44.526 32.482 45.996 33.154 47.088 34.498C48.208 35.814 48.768 37.928 48.768 40.84V55.834L58.386 33.322H63.342L64.476 54.574L64.35 55.792L74.346 33.322H80.1L66.66 61H57.714L56.874 48.232L51.33 61H41.208L39.948 40.84C39.864 39.328 39.612 38.082 39.192 37.102C38.8 36.094 38.324 35.38 37.764 34.96ZM96.2378 54.532C96.7698 55.204 97.0358 56.086 97.0358 57.178C97.0358 58.69 96.4758 59.852 95.3558 60.664C94.2358 61.448 92.7938 61.84 91.0298 61.84C90.0218 61.84 88.7478 61.728 87.2078 61.504C84.1838 61.028 82.2098 60.79 81.2858 60.79C80.3618 60.79 79.7178 60.818 79.3538 60.874C78.9898 60.902 78.5138 60.944 77.9258 61L83.0918 33.28H101.194C101.194 34.988 100.774 36.29 99.9338 37.186C99.1218 38.082 97.9038 38.53 96.2798 38.53C94.6558 38.53 93.0178 38.152 91.3658 37.396L90.0638 44.746H97.5398C97.5398 46.23 97.1758 47.392 96.4478 48.232C95.7198 49.044 94.7398 49.45 93.5078 49.45C92.3038 49.45 91.3238 49.31 90.5678 49.03C89.8118 48.75 89.3918 48.568 89.3078 48.484L87.7958 56.422C88.4678 56.506 89.4338 56.548 90.6938 56.548C92.8498 56.548 94.6978 55.876 96.2378 54.532ZM100.483 60.79L105.775 33.28C109.079 33 111.795 32.86 113.923 32.86C116.051 32.86 117.801 32.958 119.173 33.154C120.545 33.322 121.693 33.644 122.617 34.12C124.465 35.016 125.389 36.696 125.389 39.16C125.389 40.588 124.773 41.904 123.541 43.108C122.393 44.2 121.189 44.872 119.929 45.124C121.273 45.348 122.421 45.964 123.373 46.972C124.381 48.036 124.885 49.394 124.885 51.046C124.885 54.238 123.695 56.772 121.315 58.648C118.935 60.496 115.407 61.42 110.731 61.42C107.511 61.42 104.095 61.21 100.483 60.79ZM109.807 58.354C110.059 58.382 110.213 58.396 110.269 58.396H110.647C112.943 58.396 114.581 57.64 115.561 56.128C116.289 54.952 116.653 53.286 116.653 51.13C116.653 49.982 116.275 49.1 115.519 48.484C114.791 47.868 113.587 47.532 111.907 47.476L109.807 58.354ZM118.291 39.202C118.291 36.878 117.171 35.716 114.931 35.716H114.553C114.441 35.716 114.301 35.73 114.133 35.758L112.453 44.62H112.873C116.485 44.536 118.291 42.73 118.291 39.202Z" fill="#008724"/>
<path d="M145.509 7.91417C138.28 9.69787 131.881 15.4638 129.264 22.6816C127.934 26.3319 127.602 31.849 128.516 35.7068C131.3 47.446 142.601 55.2031 154.443 53.5023C158.93 52.8386 159.927 52.3823 159.927 51.0549C159.927 50.0594 159.844 50.0179 158.597 50.2668L157.226 50.5571L158.39 49.3127C159.387 48.2757 159.512 47.8608 159.304 46.6164L159.013 45.1645L156.146 48.0268C154.609 49.6031 153.113 50.889 152.864 50.889C152.614 50.889 152.448 49.0638 152.448 45.9112C152.448 41.4312 152.531 40.9334 153.196 40.9334C153.944 40.9334 156.229 41.4312 157.766 41.929C158.556 42.1779 158.681 42.0949 158.681 41.1823C158.681 39.8549 157.766 39.3571 154.775 39.0253L152.448 38.7349V35.2919V31.8075L153.612 31.766C154.235 31.766 156.603 31.7245 158.888 31.7245H163.043L163.002 33.3008C163.002 34.2134 162.919 35.5408 162.794 36.329C162.669 37.4075 162.835 37.8223 163.542 38.3201C164.414 38.9008 164.456 38.8594 164.83 37.3245C165.079 36.4534 165.37 34.8771 165.536 33.7986L165.785 31.8905L168.902 31.7245C170.647 31.6416 172.143 31.7245 172.184 31.849C172.558 32.4297 171.104 37.7394 169.94 40.0208C168.735 42.3853 168.735 42.5097 169.442 43.1734C170.356 44.0031 170.564 43.7957 172.143 40.6431C175.674 33.5497 175.051 24.3408 170.564 17.5794C167.406 12.8505 161.631 8.90972 156.271 7.78972C153.404 7.20898 148.252 7.25046 145.509 7.91417ZM143.432 12.3942C142.559 13.3897 141.438 14.8001 141.022 15.5468C140.565 16.2519 140.108 16.8742 139.983 16.8742C139.859 16.8742 139.235 16.4179 138.529 15.8371L137.283 14.8001L138.529 13.7631C139.859 12.6431 144.637 10.1957 144.928 10.4445C145.011 10.569 144.346 11.4401 143.432 12.3942ZM149.955 15.2564V20.2757L148.626 19.9853C145.842 19.446 142.933 18.4919 142.684 18.0771C142.518 17.8697 142.933 16.9157 143.557 16.0031C144.803 14.2194 148.958 10.2371 149.581 10.2371C149.789 10.2371 149.955 12.4771 149.955 15.2564ZM155.44 12.2697C158.016 14.6342 160.135 17.4549 159.761 18.0771C159.47 18.5334 156.271 19.5705 154.027 19.9853L152.448 20.2342V15.2149C152.448 12.4771 152.614 10.2371 152.822 10.2371C153.03 10.2371 154.235 11.1497 155.44 12.2697ZM163.043 13.1408C164.082 13.846 164.913 14.5927 164.913 14.8001C164.913 15.1734 162.462 17.0816 162.254 16.8327C162.212 16.7497 161.547 15.8371 160.883 14.8001C160.176 13.7631 159.096 12.4771 158.514 11.9379C157.933 11.3571 157.434 10.7764 157.434 10.6105C157.434 10.1127 160.966 11.689 163.043 13.1408ZM138.28 21.1882C137.657 22.9719 136.659 27.7423 136.659 28.9868C136.659 29.1942 135.164 29.3186 133.377 29.3186H130.053L130.302 27.7423C130.801 24.1749 132.047 21.1053 134.125 18.2016L135.454 16.4179L137.241 17.7453L139.069 19.0312L138.28 21.1882ZM169.026 19.3216C170.439 21.5201 171.685 24.8386 172.143 27.5349L172.392 29.3186H169.068C167.24 29.3186 165.744 29.1942 165.744 28.9868C165.744 27.7008 164.747 22.9719 164.082 21.1468L163.334 18.9482L165.038 17.7453C167.032 16.3764 167.198 16.4179 169.026 19.3216ZM143.557 20.9808C144.72 21.4371 146.673 21.9349 147.836 22.1008L149.955 22.3912V25.8342V29.3186H144.554H139.152V28.1571C139.152 26.1245 140.814 20.1927 141.354 20.1927C141.396 20.1927 142.393 20.566 143.557 20.9808ZM162.088 22.5986C162.503 23.8016 162.96 25.7927 163.085 27.0371L163.376 29.3186H157.891H152.448V25.8342V22.3497L154.65 22.0594C155.814 21.9349 157.642 21.4371 158.681 21.0223C159.719 20.6075 160.758 20.3171 160.966 20.3586C161.215 20.4001 161.714 21.4371 162.088 22.5986ZM137.033 34.7527C137.283 36.246 137.823 38.486 138.28 39.7719L139.069 42.0949L137.283 43.3394L135.454 44.6253L134.457 43.2979C132.38 40.6016 131.009 37.2001 130.261 33.1764L130.053 31.849L133.045 31.7245C134.707 31.6416 136.161 31.6831 136.327 31.8075C136.493 31.9319 136.826 33.2594 137.033 34.7527ZM149.955 35.2919V38.7349L147.67 39.0253C146.382 39.1497 144.429 39.6475 143.307 40.0623L141.23 40.8505L140.648 39.5231C139.983 37.9053 139.152 34.2549 139.152 32.8445V31.8075H144.554H149.955V35.2919ZM149.955 45.9112C149.955 48.649 149.831 50.889 149.706 50.889C148.543 50.889 142.476 44.3349 142.476 43.0905C142.476 42.5097 146.839 41.0994 149.041 40.9749C149.955 40.9334 149.955 41.0164 149.955 45.9112ZM140.981 45.3719C141.313 46.0357 142.352 47.4045 143.307 48.4831C144.263 49.6031 144.845 50.4742 144.595 50.4742C143.889 50.4742 139.526 48.1512 138.321 47.1557L137.283 46.326L138.446 45.289C139.942 43.9616 140.233 44.0031 140.981 45.3719Z" fill="#008724"/>
<path d="M160.093 38.9422C160.218 39.4815 160.592 42.3022 160.966 45.2889C161.34 48.234 161.714 51.0963 161.838 51.6355L162.046 52.5896L163.667 51.677C164.581 51.1378 165.37 50.8059 165.453 50.9303C165.536 51.0133 166.284 52.3407 167.115 53.8755L168.652 56.6548L169.899 55.9496C170.564 55.5763 171.145 55.0785 171.145 54.9126C171.145 54.7052 170.481 53.3363 169.65 51.8844C168.819 50.3911 168.195 49.1466 168.278 49.0637C168.362 48.9807 169.151 48.5659 170.065 48.1096L171.644 47.28L166.035 42.6755C162.919 40.1037 160.301 38.0296 160.176 38.0296C160.01 38.0296 160.01 38.4444 160.093 38.9422Z" fill="#008724"/>
</svg>
